<?xml version="1.0" encoding="UTF-8" standalone="no"?>
<!DOCTYPE svg PUBLIC "-//W3C//DTD SVG 1.1//EN" "http://www.w3.org/Graphics/SVG/1.1/DTD/svg11.dtd">
<svg viewBox="0 0 32 32" version="1.1" xmlns="http://www.w3.org/2000/svg" xmlns:xlink="http://www.w3.org/1999/xlink" xml:space="preserve" xmlns:serif="http://www.serif.com/" style="fill-rule:evenodd;clip-rule:evenodd;stroke-linejoin:round;stroke-miterlimit:2;">
    <path d="M13.071,24.358C12.574,24.358 12.109,24.112 11.829,23.7C9.49,20.25 7.078,17.827 4.456,16.295C3.741,15.877 3.5,14.958 3.918,14.243C4.335,13.528 5.254,13.285 5.97,13.705C8.499,15.183 10.826,17.332 13.041,20.244C17.302,14.236 22.324,9.406 27.993,5.869C28.698,5.431 29.621,5.644 30.059,6.348C30.497,7.051 30.284,7.976 29.58,8.414C23.645,12.116 18.655,17.111 14.322,23.684C14.046,24.103 13.58,24.356 13.079,24.359C13.077,24.358 13.074,24.358 13.071,24.358Z" style="fill:rgb(212,49,98);fill-rule:nonzero;"/>
</svg>
