<svg xmlns="http://www.w3.org/2000/svg" version="1.1" xmlns:xlink="http://www.w3.org/1999/xlink" xmlns:svgjs="http://svgjs.dev/svgjs" viewBox="0 0 800 800" opacity="0.28"><g fill="none" stroke-width="3" stroke="hsl(335, 77%, 50%)" stroke-linecap="round"><line x1="234.5" y1="400" x2="565.5" y2="400" transform="rotate(0, 400, 400)" opacity="0.84"></line><line x1="513" y1="400" x2="287" y2="400" transform="rotate(4, 400, 400)" opacity="0.51"></line><line x1="157" y1="400" x2="643" y2="400" transform="rotate(8, 400, 400)" opacity="0.77"></line><line x1="43" y1="400" x2="757" y2="400" transform="rotate(12, 400, 400)" opacity="0.54"></line><line x1="479" y1="400" x2="321" y2="400" transform="rotate(16, 400, 400)" opacity="0.51"></line><line x1="205" y1="400" x2="595" y2="400" transform="rotate(20, 400, 400)" opacity="0.83"></line><line x1="475" y1="400" x2="325" y2="400" transform="rotate(24, 400, 400)" opacity="0.99"></line><line x1="337.5" y1="400" x2="462.5" y2="400" transform="rotate(28, 400, 400)" opacity="0.87"></line><line x1="742.5" y1="400" x2="57.5" y2="400" transform="rotate(32, 400, 400)" opacity="0.52"></line><line x1="535" y1="400" x2="265" y2="400" transform="rotate(36, 400, 400)" opacity="0.61"></line><line x1="167" y1="400" x2="633" y2="400" transform="rotate(40, 400, 400)" opacity="0.23"></line><line x1="33" y1="400" x2="767" y2="400" transform="rotate(44, 400, 400)" opacity="0.72"></line><line x1="718.5" y1="400" x2="81.5" y2="400" transform="rotate(48, 400, 400)" opacity="0.36"></line><line x1="622" y1="400" x2="178" y2="400" transform="rotate(52, 400, 400)" opacity="0.92"></line><line x1="579.5" y1="400" x2="220.5" y2="400" transform="rotate(56, 400, 400)" opacity="0.42"></line><line x1="360" y1="400" x2="440" y2="400" transform="rotate(60, 400, 400)" opacity="0.13"></line><line x1="64" y1="400" x2="736" y2="400" transform="rotate(64, 400, 400)" opacity="0.50"></line><line x1="489" y1="400" x2="311" y2="400" transform="rotate(68, 400, 400)" opacity="0.66"></line><line x1="182.5" y1="400" x2="617.5" y2="400" transform="rotate(72, 400, 400)" opacity="0.63"></line><line x1="566" y1="400" x2="234" y2="400" transform="rotate(76, 400, 400)" opacity="0.20"></line><line x1="637" y1="400" x2="163" y2="400" transform="rotate(80, 400, 400)" opacity="0.70"></line><line x1="598" y1="400" x2="202" y2="400" transform="rotate(84, 400, 400)" opacity="0.54"></line><line x1="565" y1="400" x2="235" y2="400" transform="rotate(88, 400, 400)" opacity="0.23"></line><line x1="259.5" y1="400" x2="540.5" y2="400" transform="rotate(92, 400, 400)" opacity="0.35"></line><line x1="123" y1="400" x2="677" y2="400" transform="rotate(96, 400, 400)" opacity="0.67"></line><line x1="700" y1="400" x2="100" y2="400" transform="rotate(100, 400, 400)" opacity="0.69"></line><line x1="105" y1="400" x2="695" y2="400" transform="rotate(104, 400, 400)" opacity="0.97"></line><line x1="111.5" y1="400" x2="688.5" y2="400" transform="rotate(108, 400, 400)" opacity="0.53"></line><line x1="625" y1="400" x2="175" y2="400" transform="rotate(112, 400, 400)" opacity="0.69"></line><line x1="676" y1="400" x2="124" y2="400" transform="rotate(116, 400, 400)" opacity="0.55"></line><line x1="315" y1="400" x2="485" y2="400" transform="rotate(120, 400, 400)" opacity="0.58"></line><line x1="282.5" y1="400" x2="517.5" y2="400" transform="rotate(124, 400, 400)" opacity="0.84"></line><line x1="726" y1="400" x2="74" y2="400" transform="rotate(128, 400, 400)" opacity="0.46"></line><line x1="610.5" y1="400" x2="189.5" y2="400" transform="rotate(132, 400, 400)" opacity="0.10"></line><line x1="148" y1="400" x2="652" y2="400" transform="rotate(136, 400, 400)" opacity="0.97"></line><line x1="234" y1="400" x2="566" y2="400" transform="rotate(140, 400, 400)" opacity="0.22"></line><line x1="254.5" y1="400" x2="545.5" y2="400" transform="rotate(144, 400, 400)" opacity="0.11"></line><line x1="675.5" y1="400" x2="124.5" y2="400" transform="rotate(148, 400, 400)" opacity="0.50"></line><line x1="714" y1="400" x2="86" y2="400" transform="rotate(152, 400, 400)" opacity="0.95"></line><line x1="59" y1="400" x2="741" y2="400" transform="rotate(156, 400, 400)" opacity="0.51"></line><line x1="386" y1="400" x2="414" y2="400" transform="rotate(160, 400, 400)" opacity="0.23"></line><line x1="151" y1="400" x2="649" y2="400" transform="rotate(164, 400, 400)" opacity="0.90"></line><line x1="331" y1="400" x2="469" y2="400" transform="rotate(168, 400, 400)" opacity="0.16"></line><line x1="623" y1="400" x2="177" y2="400" transform="rotate(172, 400, 400)" opacity="0.64"></line><line x1="111" y1="400" x2="689" y2="400" transform="rotate(176, 400, 400)" opacity="0.96"></line><line x1="425.5" y1="400" x2="374.5" y2="400" transform="rotate(180, 400, 400)" opacity="0.96"></line><line x1="373.5" y1="400" x2="426.5" y2="400" transform="rotate(184, 400, 400)" opacity="0.74"></line><line x1="338.5" y1="400" x2="461.5" y2="400" transform="rotate(188, 400, 400)" opacity="0.52"></line><line x1="362.5" y1="400" x2="437.5" y2="400" transform="rotate(192, 400, 400)" opacity="0.09"></line><line x1="667.5" y1="400" x2="132.5" y2="400" transform="rotate(196, 400, 400)" opacity="0.48"></line><line x1="192" y1="400" x2="608" y2="400" transform="rotate(200, 400, 400)" opacity="0.48"></line><line x1="179.5" y1="400" x2="620.5" y2="400" transform="rotate(204, 400, 400)" opacity="0.54"></line><line x1="151.5" y1="400" x2="648.5" y2="400" transform="rotate(208, 400, 400)" opacity="0.61"></line><line x1="184.5" y1="400" x2="615.5" y2="400" transform="rotate(212, 400, 400)" opacity="1.00"></line><line x1="567" y1="400" x2="233" y2="400" transform="rotate(216, 400, 400)" opacity="0.07"></line><line x1="335" y1="400" x2="465" y2="400" transform="rotate(220, 400, 400)" opacity="0.12"></line><line x1="532" y1="400" x2="268" y2="400" transform="rotate(224, 400, 400)" opacity="0.90"></line><line x1="459.5" y1="400" x2="340.5" y2="400" transform="rotate(228, 400, 400)" opacity="0.62"></line><line x1="659" y1="400" x2="141" y2="400" transform="rotate(232, 400, 400)" opacity="0.60"></line><line x1="419.5" y1="400" x2="380.5" y2="400" transform="rotate(236, 400, 400)" opacity="0.40"></line><line x1="514" y1="400" x2="286" y2="400" transform="rotate(240, 400, 400)" opacity="0.47"></line><line x1="622.5" y1="400" x2="177.5" y2="400" transform="rotate(244, 400, 400)" opacity="0.36"></line><line x1="199" y1="400" x2="601" y2="400" transform="rotate(248, 400, 400)" opacity="0.79"></line><line x1="684.5" y1="400" x2="115.5" y2="400" transform="rotate(252, 400, 400)" opacity="1.00"></line><line x1="622.5" y1="400" x2="177.5" y2="400" transform="rotate(256, 400, 400)" opacity="0.96"></line><line x1="587.5" y1="400" x2="212.5" y2="400" transform="rotate(260, 400, 400)" opacity="0.46"></line><line x1="529" y1="400" x2="271" y2="400" transform="rotate(264, 400, 400)" opacity="0.19"></line><line x1="649" y1="400" x2="151" y2="400" transform="rotate(268, 400, 400)" opacity="0.91"></line><line x1="391" y1="400" x2="409" y2="400" transform="rotate(272, 400, 400)" opacity="0.41"></line><line x1="724.5" y1="400" x2="75.5" y2="400" transform="rotate(276, 400, 400)" opacity="0.18"></line><line x1="95.5" y1="400" x2="704.5" y2="400" transform="rotate(280, 400, 400)" opacity="0.74"></line><line x1="728.5" y1="400" x2="71.5" y2="400" transform="rotate(284, 400, 400)" opacity="0.46"></line><line x1="408" y1="400" x2="392" y2="400" transform="rotate(288, 400, 400)" opacity="0.58"></line><line x1="167" y1="400" x2="633" y2="400" transform="rotate(292, 400, 400)" opacity="0.09"></line><line x1="634.5" y1="400" x2="165.5" y2="400" transform="rotate(296, 400, 400)" opacity="0.80"></line><line x1="635" y1="400" x2="165" y2="400" transform="rotate(300, 400, 400)" opacity="0.29"></line><line x1="57" y1="400" x2="743" y2="400" transform="rotate(304, 400, 400)" opacity="0.71"></line><line x1="590" y1="400" x2="210" y2="400" transform="rotate(308, 400, 400)" opacity="0.87"></line><line x1="406.5" y1="400" x2="393.5" y2="400" transform="rotate(312, 400, 400)" opacity="0.47"></line><line x1="550" y1="400" x2="250" y2="400" transform="rotate(316, 400, 400)" opacity="0.61"></line><line x1="645" y1="400" x2="155" y2="400" transform="rotate(320, 400, 400)" opacity="0.91"></line><line x1="663" y1="400" x2="137" y2="400" transform="rotate(324, 400, 400)" opacity="0.08"></line><line x1="373.5" y1="400" x2="426.5" y2="400" transform="rotate(328, 400, 400)" opacity="0.25"></line><line x1="544.5" y1="400" x2="255.5" y2="400" transform="rotate(332, 400, 400)" opacity="0.62"></line><line x1="59" y1="400" x2="741" y2="400" transform="rotate(336, 400, 400)" opacity="0.30"></line><line x1="24" y1="400" x2="776" y2="400" transform="rotate(340, 400, 400)" opacity="0.18"></line><line x1="438.5" y1="400" x2="361.5" y2="400" transform="rotate(344, 400, 400)" opacity="0.61"></line><line x1="436" y1="400" x2="364" y2="400" transform="rotate(348, 400, 400)" opacity="0.49"></line></g></svg>