<?xml version="1.0" encoding="UTF-8" standalone="no"?>
<!DOCTYPE svg PUBLIC "-//W3C//DTD SVG 1.1//EN" "http://www.w3.org/Graphics/SVG/1.1/DTD/svg11.dtd">
<svg width="100%" height="100%" viewBox="0 0 200 49" version="1.1" xmlns="http://www.w3.org/2000/svg" xmlns:xlink="http://www.w3.org/1999/xlink" xml:space="preserve" xmlns:serif="http://www.serif.com/" style="fill-rule:evenodd;clip-rule:evenodd;stroke-linejoin:round;stroke-miterlimit:2;">
    <g transform="matrix(1,0,0,1,-179,-3698.85)">
        <g transform="matrix(1,0,0,4.51792,0,0)">
            <g transform="matrix(0.0260002,0,0,0.00575489,211.62,795.779)">
                <path d="M308.666,5459.09L228.085,5459.09L598.757,4330.95L821.161,4330.95L411.809,5539.67L141.057,5539.67L-266.683,4432.49L-166.762,4432.49L-574.502,5539.67L-845.254,5539.67L-1254.61,4330.95L-1030.59,4330.95L-661.529,5459.09L-738.887,5457.48L-331.147,4330.95L-100.686,4330.95L308.666,5459.09Z" style="fill:white;fill-rule:nonzero;"/>
                <path d="M1349.77,5562.23C1243.4,5562.23 1148.86,5542.09 1066.13,5501.8C983.397,5461.51 918.395,5405.37 871.121,5333.38C823.847,5261.4 800.21,5177.59 800.21,5081.97C800.21,4987.42 822.504,4904.42 867.092,4832.98C911.68,4761.53 973.459,4705.66 1052.43,4665.37C1131.4,4625.08 1221.92,4604.93 1323.99,4604.93C1426.06,4604.93 1514.43,4627.76 1589.1,4673.42C1663.77,4719.09 1721.52,4783.28 1762.35,4866.01C1803.17,4948.74 1823.59,5045.98 1823.59,5157.72L964.595,5157.72L964.595,4998.17L1718.83,4998.17L1614.08,5057.8C1610.85,4997.63 1596.62,4946.06 1571.37,4903.08C1546.12,4860.1 1512.28,4827.07 1469.84,4803.97C1427.4,4780.87 1377.17,4769.32 1319.15,4769.32C1257.91,4769.32 1204.46,4781.67 1158.8,4806.38C1113.13,4831.09 1077.41,4865.74 1051.62,4910.33C1025.84,4954.92 1012.94,5007.84 1012.94,5069.08C1012.94,5136.77 1028.25,5195.32 1058.87,5244.74C1089.5,5294.17 1133.01,5332.04 1189.42,5358.36C1245.82,5384.69 1312.7,5397.85 1390.06,5397.85C1459.9,5397.85 1531.35,5386.84 1604.41,5364.81C1677.47,5342.78 1741.93,5311.89 1797.8,5272.14L1797.8,5423.63C1741.93,5466.61 1673.98,5500.45 1593.93,5525.16C1513.89,5549.88 1432.5,5562.23 1349.77,5562.23Z" style="fill:white;fill-rule:nonzero;"/>
                <g transform="matrix(1,0,0,1.25352,0,-1404.39)">
                    <rect x="1996.03" y="4298.72" width="209.511" height="1240.95" style="fill:white;fill-rule:nonzero;"/>
                </g>
                <g transform="matrix(1,0,0,1.25352,0,-1089.79)">
                    <rect x="2427.95" y="4298.72" width="209.511" height="1240.95" style="fill:white;fill-rule:nonzero;"/>
                </g>
                <path d="M3804.27,5262.47C3804.27,5323.71 3787.08,5376.9 3752.7,5422.02C3718.32,5467.15 3666.21,5501.8 3596.37,5525.97C3526.53,5550.15 3438.97,5562.23 3333.68,5562.23C3225.16,5562.23 3131.15,5548.53 3051.64,5521.14C2972.14,5493.74 2910.62,5455.06 2867.11,5405.1C2823.6,5355.14 2800.23,5297.39 2797.01,5231.85L3009.74,5231.85C3016.19,5266.23 3033.65,5296.58 3062.12,5322.91C3090.59,5349.23 3128.19,5369.38 3174.93,5383.34C3221.67,5397.31 3275.12,5404.29 3335.29,5404.29C3422.32,5404.29 3487.85,5393.82 3531.91,5372.87C3575.96,5351.92 3597.98,5319.95 3597.98,5276.98C3597.98,5247.97 3583.21,5225.94 3553.66,5210.9C3524.12,5195.86 3468.51,5184.58 3386.86,5177.06L3207.97,5160.94C3111.27,5152.34 3034.99,5134.89 2979.12,5108.56C2923.25,5082.24 2883.5,5050.01 2859.86,5011.86C2836.22,4973.72 2824.4,4933.16 2824.4,4890.19C2824.4,4827.87 2843.74,4775.76 2882.42,4733.86C2921.1,4691.96 2974.82,4659.99 3043.58,4637.97C3112.35,4615.94 3192.39,4604.93 3283.72,4604.93C3378.26,4604.93 3462.61,4618.09 3536.74,4644.41C3610.87,4670.74 3669.97,4707.27 3714.02,4754.01C3758.07,4800.74 3782.78,4854.73 3788.15,4915.97L3575.42,4915.97C3571.12,4891.26 3558.5,4867.36 3537.55,4844.26C3516.59,4821.16 3484.9,4801.82 3442.46,4786.24C3400.02,4770.66 3343.35,4762.87 3272.43,4762.87C3197.22,4762.87 3138.4,4772.54 3095.96,4791.88C3053.52,4811.22 3032.3,4839.69 3032.3,4877.29C3032.3,4900.93 3045.2,4921.08 3070.98,4937.73C3096.77,4954.38 3144.58,4965.93 3214.42,4972.38L3444.88,4993.33C3537.28,5001.93 3609.53,5018.31 3661.64,5042.48C3713.75,5066.66 3750.55,5097.55 3772.04,5135.15C3793.52,5172.76 3804.27,5215.2 3804.27,5262.47Z" style="fill:white;fill-rule:nonzero;"/>
                <path d="M4137.87,4875.68L4629.42,4875.68C4700.33,4875.68 4756.47,4859.57 4797.83,4827.33C4839.2,4795.1 4859.88,4751.05 4859.88,4695.18C4859.88,4638.24 4839.2,4593.92 4797.83,4562.22C4756.47,4530.53 4700.33,4514.68 4629.42,4514.68L4107.25,4514.68L4202.34,4395.42L4202.34,5539.67L3989.61,5539.67L3989.61,4330.95L4648.76,4330.95C4733.64,4330.95 4808.04,4346.27 4871.97,4376.89C4935.89,4407.51 4985.85,4449.95 5021.85,4504.2C5057.84,4558.46 5075.84,4622.12 5075.84,4695.18C5075.84,4766.09 5057.84,4828.68 5021.85,4882.94C4985.85,4937.19 4935.89,4979.63 4871.97,5010.25C4808.04,5040.87 4733.64,5056.18 4648.76,5056.18L4137.87,5056.18L4137.87,4875.68ZM4376.39,4973.99L4626.19,4973.99L5106.46,5539.67L4851.82,5539.67L4376.39,4973.99Z" style="fill:white;fill-rule:nonzero;"/>
                <path d="M5873.59,4970.77L5873.59,4848.28L6437.65,5539.67L6174.96,5539.67L5739.82,4991.72L5833.3,4991.72L5396.55,5539.67L5140.3,5539.67L5705.98,4851.51L5705.98,4967.55L5180.59,4330.95L5444.9,4330.95L5842.97,4828.95L5746.27,4828.95L6141.12,4330.95L6397.36,4330.95L5873.59,4970.77Z" style="fill:white;fill-rule:nonzero;"/>
            </g>
        </g>
    </g>
</svg>
